<svg xmlns="http://www.w3.org/2000/svg" viewBox="0 0 740 500" width="740" height="500">
<g>
  <animateTransform attributeName="transform" type="translate" values="0,0; 0,-3.71; 0,-7.05; 0,-9.71; 0,-11.41; 0,-12; 0,-11.41; 0,-9.71; 0,-7.05; 0,-3.71; 0,0; 0,3.71; 0,7.05; 0,9.71; 0,11.41; 0,12; 0,11.41; 0,9.71; 0,7.05; 0,3.71; 0,0" keyTimes="0; 0.05; 0.1; 0.15; 0.2; 0.25; 0.3; 0.35; 0.4; 0.45; 0.5; 0.55; 0.6; 0.65; 0.7; 0.75; 0.8; 0.85; 0.9; 0.95; 1" dur="2s" repeatCount="indefinite" calcMode="linear"/>
  <g transform="translate(600, 420)">
    <g transform="rotate(18)">
      <animateTransform attributeName="transform" type="rotate" values="18; 21.40; 24.47; 26.90; 28.46; 29; 28.46; 26.90; 24.47; 21.40; 18; 14.60; 11.53; 9.10; 7.54; 7; 7.54; 9.10; 11.53; 14.60; 18" keyTimes="0; 0.05; 0.1; 0.15; 0.2; 0.25; 0.3; 0.35; 0.4; 0.45; 0.5; 0.55; 0.6; 0.65; 0.7; 0.75; 0.8; 0.85; 0.9; 0.95; 1" dur="2s" repeatCount="indefinite" calcMode="linear"/>
      <circle cx="0" cy="0" r="13" fill="#c8a050" stroke="#1a1a1a" stroke-width="3"/>
<circle cx="0" cy="0" r="5" fill="#7a5020"/>
<rect x="-5" y="-48" width="10" height="48" fill="#3a2412" stroke="#1a1a1a" stroke-width="2.5"/>
<line x1="-5" y1="-12" x2="5" y2="-12" stroke="#1a1a1a" stroke-width="1"/>
<line x1="-5" y1="-24" x2="5" y2="-24" stroke="#1a1a1a" stroke-width="1"/>
<line x1="-5" y1="-36" x2="5" y2="-36" stroke="#1a1a1a" stroke-width="1"/>
<rect x="-22" y="-64" width="44" height="16" rx="3" fill="#c8a050" stroke="#1a1a1a" stroke-width="3"/>
<circle cx="-22" cy="-56" r="6" fill="#c8a050" stroke="#1a1a1a" stroke-width="2.5"/>
<circle cx="22" cy="-56" r="6" fill="#c8a050" stroke="#1a1a1a" stroke-width="2.5"/>
<polygon points="-8,-64 8,-64 8,-235 0,-250 -8,-235" fill="#dadae2" stroke="#1a1a1a" stroke-width="3" stroke-linejoin="round"/>
<line x1="0" y1="-70" x2="0" y2="-235" stroke="#9a9aa2" stroke-width="2"/>
    </g>
  </g>
  <g transform="translate(75, 295)">
    <path d="M -55 -88 Q -64 -88 -64 -78 L -64 78 Q -64 88 -55 88 L 55 88 Q 64 88 64 78 L 64 -78 Q 64 -88 55 -88 Z" fill="#a02020" stroke="#1a1a1a" stroke-width="3"/>
<path d="M -50 -80 L 50 -80 L 50 80 L -50 80 Z" fill="none" stroke="#c8a050" stroke-width="3"/>
<path d="M -38 -38 Q -22 -28 -8 -22 L 8 -22 Q 22 -28 38 -38" stroke="#c8a050" stroke-width="2.5" fill="none" stroke-linecap="round"/>
<path d="M -38 38 Q -22 28 -8 22 L 8 22 Q 22 28 38 38" stroke="#c8a050" stroke-width="2.5" fill="none" stroke-linecap="round"/>
<ellipse cx="0" cy="0" rx="20" ry="18" fill="#c8a050" stroke="#1a1a1a" stroke-width="2.5"/>
<ellipse cx="0" cy="0" rx="10" ry="9" fill="#7a5020" stroke="#1a1a1a" stroke-width="1.5"/>
<path d="M -22 -58 L -16 -50 L -22 -42 L -14 -34" stroke="#c8a050" stroke-width="2" fill="none" stroke-linecap="round"/>
<path d="M 22 -58 L 16 -50 L 22 -42 L 14 -34" stroke="#c8a050" stroke-width="2" fill="none" stroke-linecap="round"/>
<circle cx="-30" cy="-68" r="2.5" fill="#c8a050"/>
<circle cx="30" cy="-68" r="2.5" fill="#c8a050"/>
<circle cx="-30" cy="68" r="2.5" fill="#c8a050"/>
<circle cx="30" cy="68" r="2.5" fill="#c8a050"/>
<line x1="0" y1="-72" x2="0" y2="-22" stroke="#c8a050" stroke-width="2"/>
<line x1="0" y1="22" x2="0" y2="72" stroke="#c8a050" stroke-width="2"/>
  </g>
  <rect x="115" y="140" width="460" height="320" rx="55" fill="#ffffff" stroke="#1a1a1a" stroke-width="3"/>
<g fill="#1a1a1a">
  <g transform="translate(250, 245)">
    <rect x="0" y="0" width="100" height="135" rx="22"/>
    <path d="M 100,100 Q 95,180 55,210 Q 30,225 12,215 Q 0,208 8,195 Q 50,175 50,130 Z"/>
  </g>
  <g transform="translate(395, 245)">
    <rect x="0" y="0" width="100" height="135" rx="22"/>
    <path d="M 100,100 Q 95,180 55,210 Q 30,225 12,215 Q 0,208 8,195 Q 50,175 50,130 Z"/>
  </g>
</g>
<g transform="translate(345, 145)">
  <path d="M -85 -38 Q -90 -62 -68 -65 L 68 -65 Q 90 -62 85 -38 L 85 -25 L -85 -25 Z" fill="#a82020" stroke="#1a1a1a" stroke-width="3"/>
  <g stroke="#651515" stroke-width="2" fill="none" stroke-linecap="round">
    <line x1="-78" y1="-50" x2="-78" y2="-28"/>
    <line x1="-65" y1="-60" x2="-65" y2="-28"/>
    <line x1="-50" y1="-63" x2="-50" y2="-28"/>
    <line x1="-35" y1="-64" x2="-35" y2="-28"/>
    <line x1="-20" y1="-64" x2="-20" y2="-28"/>
    <line x1="-5" y1="-64" x2="-5" y2="-28"/>
    <line x1="10" y1="-64" x2="10" y2="-28"/>
    <line x1="25" y1="-64" x2="25" y2="-28"/>
    <line x1="40" y1="-63" x2="40" y2="-28"/>
    <line x1="55" y1="-62" x2="55" y2="-28"/>
    <line x1="68" y1="-58" x2="68" y2="-28"/>
    <line x1="78" y1="-50" x2="78" y2="-28"/>
  </g>
  <path d="M -68 5 Q -75 -25 -55 -42 Q -30 -50 0 -50 Q 30 -50 55 -42 Q 75 -25 68 5 Z" fill="#d8d8e0" stroke="#1a1a1a" stroke-width="3"/>
  <path d="M -68 5 Q -72 -22 -56 -38 L -56 5 Z" fill="#a8a8b0"/>
  <path d="M 68 5 Q 72 -22 56 -38 L 56 5 Z" fill="#a8a8b0"/>
  <rect x="-68" y="0" width="136" height="10" fill="#c8a050" stroke="#1a1a1a" stroke-width="2.5"/>
  <path d="M -68 10 L -78 22 L 78 22 L 68 10 Z" fill="#9898a0" stroke="#1a1a1a" stroke-width="2.5"/>
  <path d="M -65 22 L -50 52 L -28 55 L -28 26 Z" fill="#a8a8b0" stroke="#1a1a1a" stroke-width="3"/>
  <path d="M 65 22 L 50 52 L 28 55 L 28 26 Z" fill="#a8a8b0" stroke="#1a1a1a" stroke-width="3"/>
  <circle cx="-44" cy="32" r="2.5" fill="#404048"/>
  <circle cx="44" cy="32" r="2.5" fill="#404048"/>
</g>
</g>
</svg>