<?xml version="1.0" encoding="UTF-8"?>
<svg id="Layer_1" data-name="Layer 1" xmlns="http://www.w3.org/2000/svg" viewBox="0 0 1311.47 786.88">
  <defs>
    <style>
      .cls-1 {
        fill: #fff;
      }
    </style>
  </defs>
  <path class="cls-1" d="M1311.47,262.29v524.59h-365.65c64.11-68.67,103.35-160.91,103.35-262.29v-173.85c0-48.86-39.58-88.44-88.41-88.44h-173.89v262.29h139.98v.07c0,100.67-56.74,188.09-139.98,232.05-35.88,18.96-76.72,29.83-120.04,30.17h-245.65c21.95-23.51,40.97-49.77,56.54-78.25,29.83-54.67,46.82-117.39,46.82-184.05h.03v-173.85c0-11.38-2.14-22.25-6.08-32.24v-.03c-1.16-3.02-2.51-5.98-4.04-8.83-14.78-28.13-44.3-47.33-78.31-47.33h-173.85v262.29h139.95v.03c0,71.66-28.78,136.65-75.39,183.98-18.82,19.16-40.6,35.4-64.55,48.04-36.49,19.3-78.11,30.24-122.31,30.24H0v-484.05s.03,0,.03-.03v-40.5c0-36.8,7.58-71.82,21.3-103.63C61.46,65.37,154.25.03,262.29.03v-.03h786.88v.03c144.84,0,262.26,117.42,262.26,262.26h.03Z"/>
</svg>