<?xml version="1.0" encoding="UTF-8"?>
<svg id="Layer_1" data-name="Layer 1" xmlns="http://www.w3.org/2000/svg" viewBox="0 0 1635.11 266.01">
  <defs>
    <style>
      .cls-1 {
        fill: #fff;
      }
    </style>
  </defs>
  <g>
    <polygon class="cls-1" points="604.6 124.9 548.9 49.22 519.65 49.22 519.65 216.8 550.24 216.8 550.24 100.83 602.21 171.81 605.8 171.81 657.54 102.89 657.54 216.8 688.36 216.8 688.36 49.22 659.11 49.22 604.6 124.9"/>
    <path class="cls-1" d="M812.07,109.5c-5.1-5.55-11.29-9.9-18.56-13.05-7.28-3.15-15.71-4.73-25.3-4.73-11.4,0-21.71,2.78-30.93,8.32-9.22,5.55-16.5,13.09-21.82,22.61-5.32,9.53-7.98,20.44-7.98,32.73s2.62,22.64,7.87,32.39c5.25,9.75,12.6,17.47,22.04,23.17,9.44,5.7,20.47,8.55,33.06,8.55,8.4,0,16.08-1.27,23.06-3.82,6.97-2.55,13.01-6.07,18.11-10.57,5.09-4.5,8.85-9.67,11.25-15.52l-23.85-11.7c-2.7,4.8-6.41,8.62-11.13,11.47-4.73,2.85-10.46,4.27-17.21,4.27s-12.71-1.57-17.88-4.72c-5.18-3.15-9.08-7.61-11.7-13.38-1.6-3.53-2.53-7.41-2.93-11.59h88.07c.6-1.65,1.01-3.6,1.24-5.85.22-2.25.34-4.42.34-6.52,0-8.25-1.35-15.93-4.05-23.06-2.7-7.12-6.6-13.46-11.7-19ZM751.78,120.63c4.8-3.07,10.27-4.61,16.42-4.61s11.96,1.58,16.53,4.73c4.57,3.15,7.87,7.42,9.9,12.82.92,2.46,1.45,5.1,1.67,7.87h-57.51c.5-2.59,1.14-5.07,2.08-7.31,2.47-5.92,6.11-10.42,10.91-13.5Z"/>
    <path class="cls-1" d="M930.73,97.58c-6.97-3.9-14.96-5.85-23.96-5.85s-16.31,1.91-22.83,5.74c-5.05,2.96-8.97,7-11.81,12.06v-15.1h-27.67v122.37h29.47v-71.76c0-5.4,1.04-10.05,3.15-13.94,2.1-3.9,5.02-6.94,8.77-9.11,3.75-2.17,8.02-3.26,12.82-3.26s9.26,1.09,12.93,3.26c3.67,2.17,6.56,5.21,8.66,9.11,2.1,3.9,3.15,8.55,3.15,13.94v71.76h29.47v-78.73c0-9.14-1.95-17.21-5.85-24.18-3.9-6.97-9.34-12.41-16.31-16.31Z"/>
    <path class="cls-1" d="M1034.76,192.28c-4.8,0-8.74-.75-11.81-2.25-3.07-1.5-5.32-3.67-6.75-6.52-1.43-2.85-2.14-6.3-2.14-10.35v-52.41h28.12v-26.32h-28.12v-27.89h-29.46v9.44c0,6-1.65,10.57-4.95,13.72-3.3,3.15-7.95,4.73-13.95,4.73h-2.25v26.32h21.15v53.98c0,13.8,3.78,24.48,11.36,32.05,7.57,7.57,18.25,11.36,32.05,11.36,2.25,0,4.72-.15,7.42-.45,2.7-.3,5.1-.6,7.2-.9v-25.19c-1.35.15-2.74.3-4.16.45-1.43.15-2.66.22-3.71.22Z"/>
    <rect class="cls-1" x="1059.5" y="94.43" width="29.47" height="122.37"/>
    <rect class="cls-1" x="1059.5" y="49.22" width="29.47" height="31.49"/>
    <path class="cls-1" d="M1203.01,100.05c-9.75-5.55-20.62-8.32-32.62-8.32s-23.09,2.78-32.84,8.32c-9.75,5.55-17.51,13.12-23.28,22.72-5.77,9.6-8.66,20.54-8.66,32.84s2.89,23.25,8.66,32.84c5.77,9.6,13.57,17.17,23.39,22.72,9.82,5.55,20.73,8.32,32.73,8.32s22.64-2.77,32.39-8.32c9.75-5.55,17.54-13.12,23.39-22.72,5.85-9.59,8.77-20.54,8.77-32.84s-2.89-23.43-8.66-32.95c-5.77-9.52-13.53-17.05-23.28-22.61ZM1199.75,174.62c-2.92,5.62-6.9,10.01-11.92,13.16-5.02,3.15-10.83,4.73-17.43,4.73s-12.67-1.58-17.77-4.73c-5.1-3.15-9.11-7.54-12.03-13.16-2.92-5.63-4.39-11.96-4.39-19.01s1.46-13.53,4.39-19c2.92-5.47,6.93-9.82,12.03-13.05,5.09-3.22,11.02-4.83,17.77-4.83s12.41,1.61,17.43,4.83c5.02,3.23,9,7.58,11.92,13.05,2.92,5.47,4.38,11.81,4.38,19s-1.46,13.38-4.38,19.01Z"/>
    <path class="cls-1" d="M1337.86,97.58c-6.97-3.9-14.96-5.85-23.96-5.85s-16.31,1.91-22.83,5.74c-5.05,2.96-8.97,7-11.81,12.06v-15.1h-27.67v122.37h29.47v-71.76c0-5.4,1.04-10.05,3.15-13.94,2.1-3.9,5.02-6.94,8.77-9.11,3.75-2.17,8.02-3.26,12.82-3.26s9.26,1.09,12.93,3.26c3.67,2.17,6.56,5.21,8.66,9.11,2.1,3.9,3.15,8.55,3.15,13.94v71.76h29.47v-78.73c0-9.14-1.95-17.21-5.85-24.18-3.9-6.97-9.34-12.41-16.31-16.31Z"/>
    <path class="cls-1" d="M1479.01,109.5c-5.1-5.55-11.29-9.9-18.56-13.05-7.28-3.15-15.71-4.73-25.3-4.73-11.4,0-21.71,2.78-30.93,8.32-9.22,5.55-16.5,13.09-21.82,22.61-5.32,9.53-7.98,20.44-7.98,32.73s2.62,22.64,7.87,32.39c5.25,9.75,12.6,17.47,22.04,23.17,9.44,5.7,20.47,8.55,33.06,8.55,8.4,0,16.08-1.27,23.06-3.82,6.97-2.55,13.01-6.07,18.11-10.57,5.09-4.5,8.85-9.67,11.25-15.52l-23.85-11.7c-2.7,4.8-6.41,8.62-11.13,11.47-4.73,2.85-10.46,4.27-17.21,4.27s-12.71-1.57-17.88-4.72c-5.18-3.15-9.08-7.61-11.7-13.38-1.6-3.53-2.53-7.41-2.93-11.59h88.07c.6-1.65,1.01-3.6,1.24-5.85.22-2.25.34-4.42.34-6.52,0-8.25-1.35-15.93-4.05-23.06-2.7-7.12-6.6-13.46-11.7-19ZM1418.72,120.63c4.8-3.07,10.27-4.61,16.42-4.61s11.96,1.58,16.53,4.73c4.57,3.15,7.87,7.42,9.9,12.82.92,2.46,1.45,5.1,1.67,7.87h-57.51c.5-2.59,1.14-5.07,2.08-7.31,2.47-5.92,6.11-10.42,10.91-13.5Z"/>
    <path class="cls-1" d="M1605.64,46.52v60.37c-3.54-3.88-7.74-7.13-12.71-9.65-7.28-3.67-15.56-5.51-24.85-5.51-11.55,0-22.01,2.85-31.38,8.55-9.37,5.7-16.76,13.35-22.16,22.94-5.39,9.6-8.1,20.39-8.1,32.39s2.7,22.65,8.1,32.39c5.4,9.75,12.74,17.43,22.04,23.06,9.3,5.63,19.87,8.43,31.72,8.43,8.85,0,17.02-1.76,24.52-5.28,5.79-2.72,10.57-6.38,14.4-10.94v13.53h27.89V46.52h-29.46ZM1601.26,174.73c-2.92,5.55-6.94,9.9-12.03,13.05-5.1,3.15-11.02,4.73-17.77,4.73s-12.52-1.58-17.77-4.73c-5.25-3.15-9.33-7.49-12.26-13.05-2.92-5.55-4.39-11.92-4.39-19.12s1.46-13.53,4.39-19c2.92-5.47,7.01-9.82,12.26-13.05,5.25-3.22,11.17-4.83,17.77-4.83s12.67,1.58,17.77,4.72c5.1,3.15,9.11,7.54,12.03,13.16,2.92,5.62,4.39,11.96,4.39,19s-1.46,13.57-4.39,19.12Z"/>
  </g>
  <path class="cls-1" d="M443.35,88.67v177.34h-123.61c21.67-23.21,34.94-54.4,34.94-88.67v-58.77c0-16.52-13.38-29.9-29.89-29.9h-58.78v88.67h47.32v.02c0,34.03-19.18,63.59-47.32,78.45-12.13,6.41-25.94,10.08-40.58,10.2h-83.04c7.42-7.95,13.85-16.83,19.11-26.45,10.08-18.48,15.83-39.68,15.83-62.22h.01v-58.77c0-3.85-.72-7.52-2.06-10.9h0c-.39-1.03-.85-2.03-1.37-3-5-9.51-14.98-16-26.47-16h-58.77v88.67h47.31c0,24.24-9.73,46.21-25.49,62.21-6.36,6.48-13.73,11.97-21.82,16.24-12.34,6.52-26.41,10.22-41.35,10.22H0V102.37s.01,0,.01-.01v-13.69C.01,76.23,2.57,64.39,7.21,53.64,20.78,22.1,52.15.01,88.67.01h0s266.01-.01,266.01-.01h0c48.96.01,88.66,39.71,88.66,88.67h.01Z"/>
</svg>