<?xml version="1.0" encoding="utf-8" ?>
<svg baseProfile="tiny" height="100%" version="1.2" width="100%" xmlns="http://www.w3.org/2000/svg" xmlns:ev="http://www.w3.org/2001/xml-events" xmlns:xlink="http://www.w3.org/1999/xlink"><defs /><polygon fill="white" points="172.0031,381.0 173.0,380.0031 174.0,380.0031 174.0031,380.0 175.0,379.0031 175.0031,379.0 176.0,378.0031 176.0031,378.0 177.0,377.0031 177.0031,377.0 178.0,376.0031 179.0,376.0031 179.0031,376.0 180.0,375.0031 180.0031,375.0 181.0,374.0031 182.0,374.0031 182.0031,374.0 183.0,373.0031 183.0031,373.0 184.0,372.0031 184.0031,372.0 185.0,371.0031 186.0,371.0031 186.0031,371.0 187.0,370.0031 187.0031,370.0 188.0,369.0031 188.0031,369.0 189.0,368.0031 190.0,368.0031 190.0031,368.0 191.0,367.0031 191.0031,367.0 192.0,366.0031 192.0031,366.0 193.0,365.0031 193.0031,365.0 194.0,364.0031 195.0,364.0031 195.0031,364.0 196.0,363.0031 196.0031,363.0 197.0,362.0031 198.0,362.0031 198.0031,362.0 199.0,361.0031 199.0031,361.0 200.0,360.0031 200.0031,360.0 201.0,359.0031 202.0,359.0031 202.0031,359.0 203.0,358.0031 203.0031,358.0 204.0,357.0031 204.0031,357.0 205.0,356.0031 206.0,356.0031 206.0031,356.0 207.0,355.0031 207.0031,355.0 208.0,354.0031 208.0031,354.0 209.0,353.0031 210.0,353.0031 210.0031,353.0 211.0,352.0031 211.0031,352.0 212.0,351.0031 212.0031,351.0 213.0,350.0031 214.0,350.0031 214.0031,350.0 215.0,349.0031 215.0031,349.0 216.0,348.0031 216.0031,348.0 217.0,347.0031 218.0,347.0031 218.0031,347.0 219.0,346.0031 219.0031,346.0 220.0,345.0031 220.0031,345.0 221.0,344.0031 222.0,344.0031 222.0031,344.0 223.0,343.0031 223.0031,343.0 224.0,342.0031 225.0,342.0031 225.0031,342.0 226.0,341.0031 226.0031,341.0 227.0,340.0031 227.0031,340.0 228.0,339.0031 229.0,339.0031 229.0031,339.0 230.0,338.0031 230.0031,338.0 231.0,337.0031 231.0031,337.0 232.0,336.0031 232.0031,336.0 233.0,335.0031 234.0,335.0031 234.0031,335.0 235.0,334.0031 235.0031,334.0 236.0,333.0031 236.0031,333.0 237.0,332.0031 238.0,332.0031 238.0031,332.0 239.0,331.0031 239.0031,331.0 240.0,330.0031 240.0031,330.0 241.0,329.0031 242.0,329.0031 242.0031,329.0 243.0,328.0031 244.0,328.0031 245.0,328.0031 246.0,328.0031 247.0,328.0031 248.0,328.0031 249.0,328.0031 250.0,328.0031 251.0,328.0031 252.0,328.0031 253.0,328.0031 254.0,328.0031 255.0,328.0031 256.0,328.0031 257.0,328.0031 258.0,328.0031 259.0,328.0031 260.0,328.0031 261.0,328.0031 262.0,328.0031 263.0,328.0031 264.0,328.0031 265.0,328.0031 266.0,328.0031 267.0,328.0031 268.0,328.0031 269.0,328.0031 270.0,328.0031 271.0,328.0031 272.0,328.0031 273.0,328.0031 274.0,328.0031 275.0,328.0031 276.0,328.0031 277.0,328.0031 278.0,328.0031 279.0,328.0031 280.0,328.0031 281.0,328.0031 282.0,328.0031 283.0,328.0031 284.0,328.0031 285.0,328.0031 286.0,328.0031 287.0,328.0031 288.0,328.0031 289.0,328.0031 290.0,328.0031 291.0,328.0031 292.0,328.0031 293.0,328.0031 294.0,328.0031 295.0,328.0031 296.0,328.0031 297.0,328.0031 298.0,328.0031 299.0,328.0031 300.0,328.0031 301.0,328.0031 302.0,328.0031 303.0,328.0031 304.0,328.0031 305.0,328.0031 306.0,328.0031 307.0,328.0031 308.0,328.0031 309.0,328.0031 310.0,328.0031 311.0,328.0031 312.0,328.0031 313.0,328.0031 314.0,328.0031 315.0,328.0031 316.0,328.0031 317.0,328.0031 318.0,328.0031 319.0,328.0031 320.0,328.0031 321.0,328.0031 322.0,328.0031 323.0,328.0031 324.0,328.0031 325.0,328.0031 326.0,328.0031 327.0,328.0031 328.0,328.0031 329.0,328.0031 330.0,328.0031 331.0,328.0031 332.0,328.0031 333.0,328.0031 334.0,328.0031 335.0,328.0031 336.0,328.0031 337.0,328.0031 338.0,328.0031 339.0,328.0031 340.0,328.0031 341.0,328.0031 342.0,328.0031 343.0,328.0031 344.0,328.0031 345.0,328.0031 346.0,328.0031 347.0,328.0031 348.0,328.0031 349.0,328.0031 350.0,328.0031 351.0,328.0031 352.0,328.0031 353.0,328.0031 354.0,328.0031 355.0,328.0031 356.0,328.0031 357.0,328.0031 358.0,328.0031 359.0,328.0031 360.0,328.0031 361.0,328.0031 362.0,328.0031 363.0,328.0031 364.0,328.0031 365.0,328.0031 366.0,328.0031 367.0,328.0031 368.0,328.0031 369.0,328.0031 370.0,328.0031 371.0,328.0031 372.0,328.0031 373.0,328.0031 374.0,328.0031 375.0,328.0031 376.0,328.0031 377.0,328.0031 378.0,328.0031 379.0,328.0031 380.0,328.0031 381.0,328.0031 382.0,328.0031 383.0,328.0031 384.0,328.0031 385.0,328.0031 386.0,328.0031 387.0,328.0031 388.0,328.0031 389.0,328.0031 390.0,328.0031 391.0,328.0031 392.0,328.0031 393.0,328.0031 394.0,328.0031 395.0,328.0031 396.0,328.0031 397.0,328.0031 398.0,328.0031 399.0,328.0031 400.0,328.0031 401.0,328.0031 402.0,328.0031 403.0,328.0031 404.0,328.0031 405.0,328.0031 406.0,328.0031 406.0031,328.0 406.0031,327.0 406.0031,326.0 406.0031,325.0 406.0031,324.0 407.0,323.0031 407.0031,323.0 407.0031,322.0 407.0031,321.0 407.0031,320.0 407.0031,319.0 407.0031,318.0 407.0031,317.0 407.0031,316.0 407.0031,315.0 407.0031,314.0 407.0031,313.0 407.0031,312.0 407.0031,311.0 407.0031,310.0 407.0031,309.0 407.0031,308.0 407.0031,307.0 407.0031,306.0 407.0031,305.0 407.0031,304.0 407.0031,303.0 407.0031,302.0 407.0031,301.0 407.0031,300.0 407.0031,299.0 407.0031,298.0 407.0031,297.0 407.0031,296.0 407.0031,295.0 407.0031,294.0 407.0031,293.0 407.0031,292.0 407.0031,291.0 407.0031,290.0 407.0031,289.0 407.0031,288.0 407.0031,287.0 407.0031,286.0 407.0031,285.0 407.0031,284.0 407.0031,283.0 407.0031,282.0 407.0031,281.0 407.0031,280.0 407.0031,279.0 407.0031,278.0 407.0031,277.0 407.0031,276.0 407.0031,275.0 407.0031,274.0 407.0031,273.0 407.0031,272.0 407.0,271.9969 406.0031,271.0 406.0031,270.0 406.0031,269.0 406.0031,268.0 406.0031,267.0 406.0031,266.0 407.0,265.0031 407.0031,265.0 407.0031,264.0 407.0031,263.0 407.0031,262.0 407.0031,261.0 407.0031,260.0 407.0031,259.0 407.0031,258.0 407.0031,257.0 407.0031,256.0 407.0031,255.0 407.0031,254.0 407.0031,253.0 407.0031,252.0 407.0031,251.0 407.0031,250.0 407.0031,249.0 407.0031,248.0 407.0031,247.0 407.0031,246.0 407.0031,245.0 407.0031,244.0 407.0031,243.0 407.0031,242.0 407.0031,241.0 407.0031,240.0 407.0031,239.0 407.0031,238.0 407.0031,237.0 407.0031,236.0 407.0,235.9969 406.0031,235.0 406.0031,234.0 406.0031,233.0 406.0031,232.0 407.0,231.0031 407.0031,231.0 407.0031,230.0 407.0031,229.0 407.0031,228.0 407.0031,227.0 407.0,226.9969 406.0031,226.0 406.0031,225.0 406.0031,224.0 406.0031,223.0 406.0031,222.0 406.0031,221.0 406.0031,220.0 406.0031,219.0 406.0031,218.0 406.0031,217.0 406.0031,216.0 406.0031,215.0 406.0031,214.0 406.0031,213.0 406.0031,212.0 406.0031,211.0 406.0031,210.0 406.0031,209.0 406.0031,208.0 406.0031,207.0 406.0031,206.0 406.0031,205.0 406.0031,204.0 406.0031,203.0 407.0,202.0031 407.0031,202.0 407.0031,201.0 407.0031,200.0 407.0031,199.0 407.0031,198.0 407.0031,197.0 407.0031,196.0 407.0031,195.0 407.0031,194.0 407.0031,193.0 407.0,192.9969 406.0031,192.0 406.0031,191.0 406.0031,190.0 406.0031,189.0 406.0031,188.0 406.0031,187.0 406.0031,186.0 406.0031,185.0 406.0031,184.0 406.0031,183.0 406.0031,182.0 407.0,181.0031 407.0031,181.0 407.0031,180.0 407.0031,179.0 407.0031,178.0 407.0031,177.0 407.0031,176.0 407.0031,175.0 407.0031,174.0 407.0,173.9969 406.0031,173.0 406.0031,172.0 406.0031,171.0 406.0,170.9969 405.0,170.9969 404.0,170.9969 403.0,170.9969 402.0,170.9969 401.0,170.9969 400.0,170.9969 399.0,170.9969 398.0,170.9969 397.0,170.9969 396.0,170.9969 395.0,170.9969 394.0,170.9969 393.0,170.9969 392.0,170.9969 391.0,170.9969 390.0,170.9969 389.0,170.9969 388.0,170.9969 387.0,170.9969 386.0,170.9969 385.0,170.9969 384.0,170.9969 383.0,170.9969 382.0,170.9969 381.0,170.9969 380.0,170.9969 379.0,170.9969 378.0,170.9969 377.0,170.9969 376.0,170.9969 375.0,170.9969 374.0,170.9969 373.0,170.9969 372.0,170.9969 371.0,170.9969 370.0,170.9969 369.0,170.9969 368.0,170.9969 367.0,170.9969 366.0,170.9969 365.0,170.9969 364.0,170.9969 363.0,170.9969 362.0,170.9969 361.0,170.9969 360.0,170.9969 359.0,170.9969 358.0,170.9969 357.0,170.9969 356.0,170.9969 355.0,170.9969 354.0,170.9969 353.0,170.9969 352.0,170.9969 351.0,170.9969 350.0,170.9969 349.0,170.9969 348.0,170.9969 347.0,170.9969 346.0,170.9969 345.0,170.9969 344.0,170.9969 343.0,170.9969 342.0,170.9969 341.0,170.9969 340.0,170.9969 339.0,170.9969 338.0,170.9969 337.0,170.9969 336.0,170.9969 335.0,170.9969 334.0,170.9969 333.0,170.9969 332.0,170.9969 331.0,170.9969 330.0,170.9969 329.0,170.9969 328.0,170.9969 327.0,170.9969 326.0,170.9969 325.0,170.9969 324.0,170.9969 323.0,170.9969 322.0,170.9969 321.0,170.9969 320.0,170.9969 319.0,170.9969 318.0,170.9969 317.0,170.9969 316.0,170.9969 315.0,170.9969 314.0,170.9969 313.0,170.9969 312.0,170.9969 311.0,170.9969 310.0,170.9969 309.0,170.9969 308.0,170.9969 307.0,170.9969 306.0,170.9969 305.0,170.9969 304.0,170.9969 303.0,170.9969 302.0,170.9969 301.0,170.9969 300.0,170.9969 299.0,170.9969 298.0,170.9969 297.0,170.9969 296.0,170.9969 295.0,170.9969 294.0,170.9969 293.0,170.9969 292.0,170.9969 291.0,170.9969 290.0,170.9969 289.0,170.9969 288.0,170.9969 287.0,170.9969 286.0,170.9969 285.0,170.9969 284.0,170.9969 283.0,170.9969 282.0,170.9969 281.0,170.9969 280.0,170.9969 279.0,170.9969 278.0,170.9969 277.0,170.9969 276.0,170.9969 275.0,170.9969 274.0,170.9969 273.0,170.9969 272.0,170.9969 271.0,170.9969 270.0,170.9969 269.0,170.9969 268.0,170.9969 267.0,170.9969 266.0,170.9969 265.0,170.9969 264.0,170.9969 263.0,170.9969 262.0,170.9969 261.0,170.9969 260.0,170.9969 259.0,170.9969 258.0,170.9969 257.0,170.9969 256.0,170.9969 255.0,170.9969 254.0,170.9969 253.0,170.9969 252.0,170.9969 251.0,170.9969 250.0,170.9969 249.0,170.9969 248.0,170.9969 247.0,170.9969 246.0,170.9969 245.0,170.9969 244.0,170.9969 243.0,170.9969 242.0,170.9969 241.0,170.9969 240.0,170.9969 239.0,170.9969 238.0,170.9969 237.0,170.9969 236.0,170.9969 235.0,170.9969 234.0,170.9969 233.0,170.9969 232.0,170.9969 231.0,170.9969 230.0,170.9969 229.0,170.9969 228.0,170.9969 227.0,170.9969 226.0,170.9969 225.0,170.9969 224.0,170.9969 223.0,170.9969 222.0,170.9969 221.0,170.9969 220.0,170.9969 219.0,170.9969 218.0,170.9969 217.0,170.9969 216.0,170.9969 215.0,170.9969 214.0,170.9969 213.0,170.9969 212.0,170.9969 211.0,170.9969 210.0,170.9969 209.0,170.9969 208.0,170.9969 207.0,170.9969 206.0,170.9969 205.0,170.9969 204.0,170.9969 203.0,170.9969 202.0,170.9969 201.0,170.9969 200.0,170.9969 199.0,170.9969 198.0,170.9969 197.0,170.9969 196.0,170.9969 195.0,170.9969 194.0,170.9969 193.0,170.9969 192.0,170.9969 191.0,170.9969 190.0,170.9969 189.0,170.9969 188.0,170.9969 187.0,170.9969 186.0,170.9969 185.0,170.9969 184.0,170.9969 183.0,170.9969 182.0,170.9969 181.0,170.9969 180.0,170.9969 179.0,170.9969 178.0,170.9969 177.0,170.9969 176.0,170.9969 175.0,170.9969 174.0,170.9969 173.0,170.9969 172.0,170.9969 171.0,170.9969 170.0,170.9969 169.0,170.9969 168.0,170.9969 167.0,170.9969 166.0,170.9969 165.0,170.9969 164.0,170.9969 163.0,170.9969 162.0,170.9969 161.0,170.9969 160.0,170.9969 159.0,170.9969 158.0,170.9969 157.0,170.9969 156.0,170.9969 155.0,170.9969 154.0,170.9969 153.0,170.9969 152.0,170.9969 151.0,170.9969 150.0,170.9969 149.0,170.9969 148.0,170.9969 147.0,170.9969 146.0,170.9969 145.0,170.9969 144.0,170.9969 143.0,170.9969 142.9969,171.0 142.9969,172.0 142.9969,173.0 142.9969,174.0 142.9969,175.0 142.9969,176.0 142.9969,177.0 142.9969,178.0 142.9969,179.0 142.9969,180.0 142.9969,181.0 142.9969,182.0 142.9969,183.0 142.9969,184.0 142.9969,185.0 142.9969,186.0 142.9969,187.0 142.9969,188.0 142.0,188.9969 141.9969,189.0 141.9969,190.0 141.9969,191.0 141.9969,192.0 141.9969,193.0 141.9969,194.0 141.9969,195.0 141.9969,196.0 141.9969,197.0 141.9969,198.0 141.9969,199.0 141.9969,200.0 141.9969,201.0 141.9969,202.0 141.9969,203.0 141.9969,204.0 141.9969,205.0 142.0,205.0031 142.9969,206.0 142.9969,207.0 142.9969,208.0 142.9969,209.0 142.0,209.9969 141.9969,210.0 141.9969,211.0 141.9969,212.0 141.9969,213.0 141.9969,214.0 141.9969,215.0 141.9969,216.0 141.9969,217.0 141.9969,218.0 141.9969,219.0 141.9969,220.0 141.9969,221.0 141.9969,222.0 141.9969,223.0 141.9969,224.0 141.9969,225.0 141.9969,226.0 141.9969,227.0 141.9969,228.0 141.9969,229.0 141.9969,230.0 141.9969,231.0 141.9969,232.0 141.9969,233.0 141.9969,234.0 141.9969,235.0 141.9969,236.0 141.9969,237.0 141.9969,238.0 141.9969,239.0 141.9969,240.0 141.9969,241.0 141.9969,242.0 142.0,242.0031 142.9969,243.0 142.9969,244.0 142.9969,245.0 142.9969,246.0 142.9969,247.0 142.9969,248.0 142.9969,249.0 142.9969,250.0 142.9969,251.0 142.9969,252.0 142.0,252.9969 141.9969,253.0 141.9969,254.0 141.9969,255.0 141.9969,256.0 141.9969,257.0 141.9969,258.0 141.9969,259.0 141.9969,260.0 141.9969,261.0 141.9969,262.0 141.9969,263.0 141.9969,264.0 141.9969,265.0 141.9969,266.0 141.9969,267.0 141.9969,268.0 141.9969,269.0 142.0,269.0031 142.9969,270.0 142.9969,271.0 142.9969,272.0 142.9969,273.0 142.9969,274.0 142.9969,275.0 142.9969,276.0 142.9969,277.0 142.9969,278.0 142.9969,279.0 142.9969,280.0 142.9969,281.0 142.9969,282.0 142.9969,283.0 142.9969,284.0 142.9969,285.0 142.9969,286.0 142.9969,287.0 142.0,287.9969 141.9969,288.0 141.9969,289.0 141.9969,290.0 141.9969,291.0 141.9969,292.0 141.9969,293.0 141.9969,294.0 141.9969,295.0 141.9969,296.0 141.9969,297.0 141.9969,298.0 141.9969,299.0 141.9969,300.0 141.9969,301.0 141.9969,302.0 141.9969,303.0 141.9969,304.0 141.9969,305.0 141.9969,306.0 141.9969,307.0 141.9969,308.0 141.9969,309.0 141.9969,310.0 141.9969,311.0 141.9969,312.0 141.9969,313.0 141.9969,314.0 141.9969,315.0 141.9969,316.0 141.9969,317.0 141.9969,318.0 141.9969,319.0 141.9969,320.0 141.9969,321.0 141.9969,322.0 141.9969,323.0 141.9969,324.0 141.9969,325.0 141.9969,326.0 141.9969,327.0 141.9969,328.0 142.0,328.0031 142.9969,329.0 143.0,329.0031 144.0,329.0031 145.0,329.0031 146.0,329.0031 147.0,329.0031 148.0,329.0031 149.0,329.0031 150.0,329.0031 151.0,329.0031 152.0,329.0031 153.0,329.0031 154.0,329.0031 155.0,329.0031 156.0,329.0031 157.0,329.0031 158.0,329.0031 159.0,329.0031 160.0,329.0031 161.0,329.0031 162.0,329.0031 163.0,329.0031 164.0,329.0031 165.0,329.0031 166.0,329.0031 167.0,329.0031 168.0,329.0031 169.0,329.0031 170.0,329.0031 171.0,329.0031 172.0,329.0031 173.0,329.0031 174.0,329.0031 175.0,329.0031 176.0,329.0031 177.0,329.0031 178.0,329.0031 179.0,329.0031 180.0,329.0031 181.0,329.0031 182.0,329.0031 182.9969,330.0 182.9969,331.0 182.9969,332.0 182.9969,333.0 182.9969,334.0 182.0,334.9969 181.9969,335.0 181.9969,336.0 181.9969,337.0 181.9969,338.0 181.9969,339.0 181.0,339.9969 180.9969,340.0 180.9969,341.0 180.9969,342.0 180.9969,343.0 180.9969,344.0 180.0,344.9969 179.9969,345.0 179.9969,346.0 179.9969,347.0 179.9969,348.0 179.9969,349.0 179.0,349.9969 178.9969,350.0 178.9969,351.0 178.9969,352.0 178.9969,353.0 178.0,353.9969 177.9969,354.0 177.9969,355.0 177.9969,356.0 177.9969,357.0 177.0,357.9969 176.9969,358.0 176.9969,359.0 176.9969,360.0 176.9969,361.0 176.9969,362.0 176.0,362.9969 175.9969,363.0 175.9969,364.0 175.9969,365.0 175.9969,366.0 175.0,366.9969 174.9969,367.0 174.9969,368.0 174.9969,369.0 174.9969,370.0 174.0,370.9969 173.9969,371.0 173.9969,372.0 173.9969,373.0 173.9969,374.0 173.9969,375.0 173.0,375.9969 172.9969,376.0 172.9969,377.0 172.9969,378.0 172.9969,379.0 172.0,379.9969 171.9969,380.0 171.9969,381.0 172.0,381.0031 172.0031,381.0" /><polygon fill="white" points="246.0,302.9969 245.0,302.9969 244.0,302.9969 243.0,302.9969 242.0,302.9969 241.0,302.9969 240.0,302.9969 239.0,302.9969 238.0,302.9969 237.0,302.9969 236.0,302.9969 235.0,302.9969 234.0,302.9969 233.0,302.9969 232.0,302.9969 231.0,302.9969 230.0,302.9969 229.0,302.9969 228.0,302.9969 227.0,302.9969 226.0,302.9969 225.0,302.9969 224.0,302.9969 223.0,302.9969 222.0,302.9969 221.0,302.9969 220.0,302.9969 219.0,302.9969 218.0,302.9969 217.0031,302.0 217.0031,301.0 217.0031,300.0 217.0031,299.0 218.0,298.0031 218.0031,298.0 218.0031,297.0 219.0,296.0031 219.0031,296.0 219.0031,295.0 220.0,294.0031 220.0031,294.0 220.0031,293.0 221.0,292.0031 221.0031,292.0 222.0,291.0031 222.0031,291.0 222.0031,290.0 223.0,289.0031 223.0031,289.0 223.0031,288.0 223.0031,287.0 224.0,286.0031 224.0031,286.0 224.0031,285.0 225.0,284.0031 225.0031,284.0 225.0031,283.0 226.0,282.0031 226.0031,282.0 226.0031,281.0 227.0,280.0031 227.0031,280.0 228.0,279.0031 228.0031,279.0 228.0031,278.0 228.0031,277.0 229.0,276.0031 229.0031,276.0 230.0,275.0031 230.0031,275.0 230.0031,274.0 230.0031,273.0 231.0,272.0031 231.0031,272.0 232.0,271.0031 232.0031,271.0 232.0031,270.0 233.0,269.0031 233.0031,269.0 233.0031,268.0 234.0,267.0031 234.0031,267.0 234.0031,266.0 235.0,265.0031 235.0031,265.0 235.0031,264.0 236.0,263.0031 236.0031,263.0 236.0031,262.0 237.0,261.0031 237.0031,261.0 237.0031,260.0 237.0,259.9969 236.0031,259.0 236.0,258.9969 235.0,258.9969 234.0,258.9969 233.0,258.9969 232.0,258.9969 231.0,258.9969 230.0,258.9969 229.0,258.9969 228.0,258.9969 227.0,258.9969 226.0,258.9969 225.0,258.9969 224.0,258.9969 223.0,258.9969 222.0,258.9969 221.0,258.9969 220.0,258.9969 219.0,258.9969 218.0,258.9969 217.0,258.9969 216.0,258.9969 215.0,258.9969 214.0,258.9969 213.0,258.9969 212.0,258.9969 211.0,258.9969 210.0,258.9969 209.0,258.9969 208.0031,258.0 208.0031,257.0 208.0,256.9969 207.0031,256.0 207.0031,255.0 207.0031,254.0 207.0031,253.0 207.0031,252.0 207.0031,251.0 207.0031,250.0 207.0031,249.0 207.0031,248.0 207.0031,247.0 207.0031,246.0 207.0031,245.0 207.0031,244.0 207.0031,243.0 207.0031,242.0 207.0031,241.0 207.0031,240.0 207.0031,239.0 207.0031,238.0 207.0031,237.0 207.0031,236.0 207.0031,235.0 207.0031,234.0 207.0031,233.0 207.0031,232.0 207.0031,231.0 207.0031,230.0 207.0031,229.0 207.0031,228.0 207.0031,227.0 207.0031,226.0 207.0031,225.0 207.0031,224.0 207.0031,223.0 207.0031,222.0 207.0031,221.0 207.0031,220.0 207.0031,219.0 207.0031,218.0 207.0031,217.0 207.0031,216.0 207.0031,215.0 207.0031,214.0 207.0031,213.0 207.0031,212.0 207.0031,211.0 207.0031,210.0 207.0031,209.0 207.0031,208.0 207.0031,207.0 207.0031,206.0 207.0031,205.0 207.0031,204.0 208.0,203.0031 208.0031,203.0 208.0031,202.0 209.0,201.0031 210.0,201.0031 211.0,201.0031 212.0,201.0031 213.0,201.0031 214.0,201.0031 215.0,201.0031 216.0,201.0031 217.0,201.0031 218.0,201.0031 219.0,201.0031 220.0,201.0031 221.0,201.0031 222.0,201.0031 223.0,201.0031 224.0,201.0031 225.0,201.0031 226.0,201.0031 227.0,201.0031 228.0,201.0031 229.0,201.0031 230.0,201.0031 231.0,201.0031 232.0,201.0031 233.0,201.0031 234.0,201.0031 235.0,201.0031 236.0,201.0031 237.0,201.0031 238.0,201.0031 239.0,201.0031 240.0,201.0031 241.0,201.0031 242.0,201.0031 243.0,201.0031 244.0,201.0031 245.0,201.0031 246.0,201.0031 247.0,201.0031 248.0,201.0031 249.0,201.0031 250.0,201.0031 251.0,201.0031 252.0,201.0031 253.0,201.0031 254.0,201.0031 255.0,201.0031 256.0,201.0031 257.0,201.0031 258.0,201.0031 259.0,201.0031 260.0,201.0031 261.0,201.0031 262.0,201.0031 263.0,201.0031 264.0,201.0031 265.0,201.0031 266.0,201.0031 267.0,201.0031 268.0,201.0031 268.9969,202.0 269.0,202.0031 269.9969,203.0 269.9969,204.0 269.9969,205.0 269.9969,206.0 269.9969,207.0 269.9969,208.0 269.9969,209.0 269.9969,210.0 269.9969,211.0 269.9969,212.0 269.9969,213.0 269.9969,214.0 269.9969,215.0 269.9969,216.0 269.9969,217.0 269.9969,218.0 269.9969,219.0 269.9969,220.0 269.9969,221.0 269.9969,222.0 269.9969,223.0 269.9969,224.0 269.9969,225.0 269.9969,226.0 269.9969,227.0 269.9969,228.0 269.9969,229.0 269.9969,230.0 269.9969,231.0 269.9969,232.0 269.9969,233.0 269.9969,234.0 269.9969,235.0 269.9969,236.0 269.9969,237.0 269.9969,238.0 269.9969,239.0 269.9969,240.0 269.9969,241.0 269.9969,242.0 269.9969,243.0 269.9969,244.0 269.9969,245.0 269.9969,246.0 269.9969,247.0 269.9969,248.0 269.9969,249.0 269.9969,250.0 269.9969,251.0 269.9969,252.0 269.9969,253.0 269.9969,254.0 269.9969,255.0 269.9969,256.0 269.9969,257.0 269.9969,258.0 269.9969,259.0 269.0,259.9969 268.9969,260.0 268.9969,261.0 268.0,261.9969 267.9969,262.0 267.9969,263.0 267.0,263.9969 266.9969,264.0 266.9969,265.0 266.0,265.9969 265.9969,266.0 265.9969,267.0 265.0,267.9969 264.9969,268.0 264.9969,269.0 264.0,269.9969 263.9969,270.0 263.9969,271.0 263.0,271.9969 262.9969,272.0 262.0,272.9969 261.9969,273.0 261.9969,274.0 261.0,274.9969 260.9969,275.0 260.9969,276.0 260.0,276.9969 259.9969,277.0 259.9969,278.0 259.0,278.9969 258.9969,279.0 258.9969,280.0 258.0,280.9969 257.9969,281.0 257.9969,282.0 257.0,282.9969 256.9969,283.0 256.9969,284.0 256.0,284.9969 255.9969,285.0 255.9969,286.0 255.0,286.9969 254.9969,287.0 254.9969,288.0 254.0,288.9969 253.9969,289.0 253.9969,290.0 253.0,290.9969 252.9969,291.0 252.9969,292.0 252.0,292.9969 251.9969,293.0 251.9969,294.0 251.0,294.9969 250.9969,295.0 250.9969,296.0 250.0,296.9969 249.9969,297.0 249.9969,298.0 249.0,298.9969 248.9969,299.0 248.9969,300.0 248.0,300.9969 247.9969,301.0 247.0,301.9969 246.9969,302.0 246.0,302.9969" /><polygon fill="white" points="322.0,302.9969 321.0,302.9969 320.0,302.9969 319.0,302.9969 318.0,302.9969 317.0,302.9969 316.0,302.9969 315.0,302.9969 314.0,302.9969 313.0,302.9969 312.0,302.9969 311.0,302.9969 310.0,302.9969 309.0,302.9969 308.0,302.9969 307.0,302.9969 306.0,302.9969 305.0,302.9969 304.0,302.9969 303.0,302.9969 302.0,302.9969 301.0,302.9969 300.0,302.9969 299.0,302.9969 298.0,302.9969 297.0,302.9969 296.0,302.9969 295.0,302.9969 294.0,302.9969 293.0,302.9969 292.0031,302.0 292.0031,301.0 292.0031,300.0 292.0031,299.0 293.0,298.0031 293.0031,298.0 293.0031,297.0 294.0,296.0031 294.0031,296.0 294.0031,295.0 295.0,294.0031 295.0031,294.0 295.0031,293.0 296.0,292.0031 296.0031,292.0 296.0031,291.0 297.0,290.0031 297.0031,290.0 297.0031,289.0 298.0,288.0031 298.0031,288.0 298.0031,287.0 299.0,286.0031 299.0031,286.0 299.0031,285.0 300.0,284.0031 300.0031,284.0 300.0031,283.0 301.0,282.0031 301.0031,282.0 301.0031,281.0 302.0,280.0031 302.0031,280.0 302.0031,279.0 303.0,278.0031 303.0031,278.0 303.0031,277.0 304.0,276.0031 304.0031,276.0 304.0031,275.0 305.0,274.0031 305.0031,274.0 305.0031,273.0 306.0,272.0031 306.0031,272.0 306.0031,271.0 307.0,270.0031 307.0031,270.0 307.0031,269.0 308.0,268.0031 308.0031,268.0 308.0031,267.0 309.0,266.0031 309.0031,266.0 309.0031,265.0 310.0,264.0031 310.0031,264.0 310.0031,263.0 311.0,262.0031 311.0031,262.0 311.0031,261.0 312.0,260.0031 312.0031,260.0 312.0,259.9969 311.0031,259.0 311.0,258.9969 310.0,258.9969 309.0,258.9969 308.0,258.9969 307.0,258.9969 306.0,258.9969 305.0,258.9969 304.0,258.9969 303.0,258.9969 302.0,258.9969 301.0,258.9969 300.0,258.9969 299.0,258.9969 298.0,258.9969 297.0,258.9969 296.0,258.9969 295.0,258.9969 294.0,258.9969 293.0,258.9969 292.0,258.9969 291.0,258.9969 290.0,258.9969 289.0,258.9969 288.0,258.9969 287.0,258.9969 286.0,258.9969 285.0,258.9969 284.0031,258.0 284.0,257.9969 283.0031,257.0 283.0031,256.0 283.0031,255.0 283.0031,254.0 283.0031,253.0 283.0031,252.0 283.0031,251.0 283.0031,250.0 283.0031,249.0 283.0031,248.0 283.0031,247.0 283.0031,246.0 283.0031,245.0 283.0031,244.0 283.0031,243.0 283.0031,242.0 283.0031,241.0 283.0031,240.0 283.0031,239.0 283.0031,238.0 283.0031,237.0 283.0031,236.0 283.0031,235.0 283.0031,234.0 283.0031,233.0 283.0031,232.0 283.0031,231.0 283.0031,230.0 283.0031,229.0 283.0031,228.0 283.0031,227.0 283.0031,226.0 283.0031,225.0 283.0031,224.0 283.0031,223.0 283.0031,222.0 283.0031,221.0 283.0031,220.0 283.0031,219.0 283.0031,218.0 283.0031,217.0 283.0031,216.0 283.0031,215.0 283.0031,214.0 283.0031,213.0 283.0031,212.0 283.0031,211.0 283.0031,210.0 283.0031,209.0 283.0031,208.0 283.0031,207.0 283.0031,206.0 283.0031,205.0 283.0031,204.0 283.0031,203.0 284.0,202.0031 285.0,202.0031 285.0031,202.0 286.0,201.0031 287.0,201.0031 288.0,201.0031 289.0,201.0031 290.0,201.0031 291.0,201.0031 292.0,201.0031 293.0,201.0031 294.0,201.0031 295.0,201.0031 296.0,201.0031 297.0,201.0031 298.0,201.0031 299.0,201.0031 300.0,201.0031 301.0,201.0031 302.0,201.0031 303.0,201.0031 304.0,201.0031 304.9969,202.0 305.0,202.0031 306.0,202.0031 307.0,202.0031 308.0,202.0031 309.0,202.0031 310.0,202.0031 311.0,202.0031 312.0,202.0031 313.0,202.0031 314.0,202.0031 315.0,202.0031 316.0,202.0031 317.0,202.0031 318.0,202.0031 319.0,202.0031 320.0,202.0031 321.0,202.0031 322.0,202.0031 323.0,202.0031 324.0,202.0031 325.0,202.0031 326.0,202.0031 327.0,202.0031 328.0,202.0031 329.0,202.0031 330.0,202.0031 331.0,202.0031 332.0,202.0031 333.0,202.0031 334.0,202.0031 335.0,202.0031 336.0,202.0031 337.0,202.0031 338.0,202.0031 339.0,202.0031 340.0,202.0031 340.0031,202.0 341.0,201.0031 341.9969,202.0 342.0,202.0031 343.0,202.0031 343.9969,203.0 343.9969,204.0 343.9969,205.0 343.9969,206.0 343.9969,207.0 343.9969,208.0 343.9969,209.0 343.9969,210.0 343.9969,211.0 343.9969,212.0 343.9969,213.0 343.9969,214.0 343.9969,215.0 343.9969,216.0 343.9969,217.0 343.9969,218.0 343.9969,219.0 343.9969,220.0 343.9969,221.0 343.9969,222.0 343.9969,223.0 343.9969,224.0 343.9969,225.0 343.9969,226.0 343.9969,227.0 343.9969,228.0 343.9969,229.0 343.9969,230.0 343.9969,231.0 343.9969,232.0 343.9969,233.0 343.9969,234.0 343.9969,235.0 343.9969,236.0 343.9969,237.0 343.9969,238.0 343.9969,239.0 343.9969,240.0 343.9969,241.0 343.9969,242.0 343.9969,243.0 343.9969,244.0 343.9969,245.0 343.9969,246.0 343.9969,247.0 343.9969,248.0 343.9969,249.0 343.9969,250.0 343.9969,251.0 343.9969,252.0 343.9969,253.0 343.9969,254.0 343.9969,255.0 343.9969,256.0 343.9969,257.0 343.9969,258.0 343.9969,259.0 343.9969,260.0 343.0,260.9969 342.9969,261.0 342.9969,262.0 342.0,262.9969 341.9969,263.0 341.9969,264.0 341.0,264.9969 340.9969,265.0 340.9969,266.0 340.0,266.9969 339.9969,267.0 339.9969,268.0 339.0,268.9969 338.9969,269.0 338.9969,270.0 338.0,270.9969 337.9969,271.0 337.9969,272.0 337.0,272.9969 336.9969,273.0 336.0,273.9969 335.9969,274.0 335.9969,275.0 335.9969,276.0 335.0,276.9969 334.9969,277.0 334.9969,278.0 334.0,278.9969 333.9969,279.0 333.9969,280.0 333.0,280.9969 332.9969,281.0 332.9969,282.0 332.0,282.9969 331.9969,283.0 331.9969,284.0 331.0,284.9969 330.9969,285.0 330.9969,286.0 330.0,286.9969 329.9969,287.0 329.9969,288.0 329.0,288.9969 328.9969,289.0 328.9969,290.0 328.0,290.9969 327.9969,291.0 327.9969,292.0 327.0,292.9969 326.9969,293.0 326.9969,294.0 326.0,294.9969 325.9969,295.0 325.9969,296.0 325.0,296.9969 324.9969,297.0 324.9969,298.0 324.0,298.9969 323.9969,299.0 323.9969,300.0 323.0,300.9969 322.9969,301.0 322.9969,302.0 322.0,302.9969" /></svg>